<svg width="17" height="17" viewBox="0 0 17 17" fill="none" xmlns="http://www.w3.org/2000/svg">
  <path d="M1.49146 9.44493C1.5596 9.37665 1.64506 9.32821 1.73865 9.30481C1.83224 9.28141 1.93044 9.28394 2.02271 9.31212C3.03569 9.61836 4.11277 9.64404 5.13919 9.38642C6.16562 9.1288 7.10291 8.59753 7.85122 7.84923C8.59952 7.10093 9.13078 6.16363 9.38841 5.1372C9.64603 4.11078 9.62035 3.0337 9.31411 2.02072C9.28569 1.92841 9.28297 1.83011 9.30624 1.73637C9.32951 1.64264 9.37789 1.55702 9.44619 1.48873C9.51448 1.42044 9.6001 1.37205 9.69383 1.34878C9.78757 1.32551 9.88587 1.32823 9.97817 1.35665C11.3787 1.78567 12.6082 2.64546 13.4917 3.81369C14.2644 4.83957 14.7357 6.06059 14.8527 7.33957C14.9697 8.61856 14.7278 9.90483 14.1541 11.0539C13.5803 12.2029 12.6976 13.1692 11.6049 13.8442C10.5123 14.5192 9.25305 14.8762 7.96872 14.875C6.47037 14.8796 5.01188 14.3925 3.817 13.4884C2.64878 12.6049 1.78899 11.3753 1.35997 9.97486C1.33188 9.8829 1.32927 9.78504 1.35243 9.69171C1.37558 9.59839 1.42363 9.5131 1.49146 9.44493ZM4.45583 12.6397C5.58106 13.4873 6.97456 13.8998 8.37981 13.8014C9.78506 13.703 11.1075 13.1003 12.1036 12.1042C13.0998 11.1082 13.7026 9.78582 13.8011 8.38057C13.8996 6.97533 13.4872 5.58179 12.6397 4.4565C12.0876 3.7274 11.3739 3.13637 10.5546 2.72994C10.6013 3.05747 10.6248 3.38788 10.625 3.71872C10.623 5.54978 9.8948 7.30529 8.60004 8.60004C7.30529 9.8948 5.54978 10.623 3.71872 10.625C3.38722 10.6249 3.05613 10.6013 2.72794 10.5546C3.13476 11.374 3.72625 12.0878 4.45583 12.6397Z" fill="#155DA4" />
</svg>